<?xml version="1.0" encoding="UTF-8" standalone="no"?><!-- Generator: Gravit.io --><svg xmlns="http://www.w3.org/2000/svg" xmlns:xlink="http://www.w3.org/1999/xlink" style="isolation:isolate" viewBox="0 0 512 512" width="512pt" height="512pt"><defs><clipPath id="_clipPath_P12NsrITtwOJhbcjLMzVFypCPIsmq1TR"><rect width="512" height="512"/></clipPath></defs><g clip-path="url(#_clipPath_P12NsrITtwOJhbcjLMzVFypCPIsmq1TR)"><path d=" M 303.658 262.644 C 266.122 262.644 235.162 290.709 230.559 326.996 C 268.179 327.327 298.685 358.019 298.685 395.718 C 298.685 400.534 298.181 405.232 297.235 409.771 C 299.353 409.957 301.492 410.069 303.658 410.069 C 344.368 410.069 377.37 377.069 377.37 336.356 C 377.37 295.646 344.368 262.644 303.658 262.644 Z " fill="rgb(84,50,140)"/><path d=" M 281.58 411.531 C 283.437 411.531 285.271 411.632 287.08 411.819 C 288.521 406.699 289.309 401.302 289.309 395.718 C 289.309 362.931 262.731 336.356 229.946 336.356 C 197.163 336.356 170.586 362.931 170.586 395.718 C 170.586 428.356 196.926 454.83 229.508 455.07 C 233.953 430.351 255.603 411.531 281.58 411.531 Z " fill="rgb(84,50,140)"/><path d=" M 325.126 464.456 C 325.126 488.502 305.63 508 281.58 508 C 257.529 508 238.033 488.502 238.033 464.456 C 238.033 440.404 257.529 420.906 281.58 420.906 C 305.63 420.906 325.126 440.404 325.126 464.456 Z " fill="rgb(84,50,140)"/><path d=" M 221.034 327.577 C 225.434 285.875 260.809 253.269 303.658 253.269 C 315.423 253.269 326.621 255.732 336.773 260.16 C 332.292 208.603 289.027 168.15 236.308 168.15 C 180.607 168.15 135.453 213.305 135.453 269.006 C 135.453 302.858 152.133 332.81 177.722 351.102 C 188.513 338.489 203.775 329.823 221.034 327.577 Z " fill="rgb(84,50,140)"/><path d=" M 408.286 168.15 C 408.286 122.222 371.054 84.991 325.126 84.991 C 282.308 84.991 247.053 117.354 242.475 158.953 C 267.974 160.368 292.103 170.526 310.984 187.928 C 328.672 204.23 340.423 225.617 344.713 248.984 C 381.188 240.177 408.286 207.331 408.286 168.15 Z " fill="rgb(84,50,140)"/><path d=" M 233.156 157.927 C 234.24 148.073 236.858 138.737 240.728 130.121 C 230.679 100.03 210.487 65.614 177.053 44.682 C 171.348 41.11 163.826 42.839 160.255 48.545 C 156.682 54.25 158.412 61.771 164.118 65.343 C 200.588 88.177 218.556 131.685 223.075 159.572 C 226.361 159.177 229.69 158.925 233.057 158.827 L 233.156 157.927 Z " fill="rgb(115,92,72)"/><path d=" M 205.929 128.802 C 181.254 105.234 139.732 109.628 119.525 130.786 C 140.683 150.994 182.362 153.478 205.929 128.802 Z " fill="rgb(200,119,66)"/><path d=" M 233.25 91.883 C 259.928 70.61 261.173 28.875 242.932 6 C 220.057 24.24 211.977 65.204 233.25 91.883 Z " fill="rgb(200,119,66)"/></g></svg>